<svg width="800" height="600" viewBox="0 0 800 600" xmlns="http://www.w3.org/2000/svg">
  <!-- Sky -->
  <rect width="800" height="600" fill="#87CEEB"/>

  <!-- Sun -->
  <circle cx="400" cy="500" r="60" fill="#FFD700"/>

  <!-- Sea of Clouds -->
  <g fill="#FFFFFF">
    <ellipse cx="400" cy="550" rx="300" ry="50"/>
    <ellipse cx="200" cy="530" rx="150" ry="30"/>
    <ellipse cx="600" cy="530" rx="150" ry="30"/>
  </g>

  <!-- Distant Mountains -->
  <g fill="#A9A9A9">
    <polygon points="100,550 250,350 400,550"/>
    <polygon points="500,550 650,350 800,550"/>
  </g>

  <!-- Main Mountain -->
  <polygon points="0,550 400,200 800,550" fill="#556B2F"/>

  <!-- Climber -->
  <g transform="translate(400,200)">
    <!-- Body -->
    <circle cx="0" cy="-150" r="10" fill="#FF6347"/>
    <line x1="0" y1="-140" x2="0" y2="-100" stroke="#000000" stroke-width="2"/>
    <line x1="0" y1="-130" x2="-20" y2="-110" stroke="#000000" stroke-width="2"/>
    <line x1="0" y1="-130" x2="20" y2="-110" stroke="#000000" stroke-width="2"/>
    <line x1="0" y1="-100" x2="-20" y2="-80" stroke="#000000" stroke-width="2"/>
    <line x1="0" y1="-100" x2="20" y2="-80" stroke="#000000" stroke-width="2"/>
    <!-- Arms raised -->
    <line x1="0" y1="-130" x2="-30" y2="-160" stroke="#000000" stroke-width="2"/>
    <line x1="0" y1="-130" x2="30" y2="-160" stroke="#000000" stroke-width="2"/>
  </g>

  <!-- Ground Shadow -->
  <rect y="550" width="800" height="50" fill="#2E8B57"/>
</svg>