<svg xmlns="http://www.w3.org/2000/svg" viewBox="0 0 800 600">
  <!-- Background Sky -->
  <rect width="800" height="600" fill="#1a1a2e" />

  <!-- Dual Suns -->
  <circle cx="200" cy="100" r="50" fill="#ffcc00" />
  <circle cx="600" cy="150" r="40" fill="#ff6699" />

  <!-- Multi-Shadowed Landscape -->
  <path d="M0,400 L800,400 L800,600 L0,600 Z" fill="#0e0e52" />
  <path d="M0,400 L200,350 L400,400 L600,350 L800,400 L800,600 L0,600 Z" fill="#1f4068" />

  <!-- Neon Blue River -->
  <path d="M100,400 C200,450 600,350 700,400 L700,600 L100,600 Z" fill="#00f5ff" />

  <!-- Alien Flora -->
  <g>
    <ellipse cx="150" cy="350" rx="20" ry="40" fill="#2ecc71" />
    <ellipse cx="650" cy="360" rx="15" ry="30" fill="#28a745" />
    <ellipse cx="400" cy="330" rx="25" ry="35" fill="#27ae60" />
  </g>

  <!-- Alien Fauna -->
  <g>
    <circle cx="250" cy="450" r="10" fill="#e74c3c" />
    <circle cx="550" cy="470" r="12" fill="#e74c3c" />
    <circle cx="350" cy="430" r="8" fill="#e74c3c" />
  </g>

  <!-- Astronaut -->
  <g>
    <!-- Body -->
    <rect x="375" y="300" width="50" height="100" fill="#ffffff" stroke="#000000" stroke-width="2"/>
    <!-- Helmet -->
    <circle cx="400" cy="275" r="25" fill="#dfe6e9" stroke="#000000" stroke-width="2"/>
    <!-- Arms -->
    <rect x="350" y="300" width="25" height="10" fill="#ffffff" stroke="#000000" stroke-width="2"/>
    <rect x="425" y="300" width="25" height="10" fill="#ffffff" stroke="#000000" stroke-width="2"/>
    <!-- Legs -->
    <rect x="375" y="400" width="15" height="40" fill="#ffffff" stroke="#000000" stroke-width="2"/>
    <rect x="410" y="400" width="15" height="40" fill="#ffffff" stroke="#000000" stroke-width="2"/>
  </g>
</svg>