<svg width="800" height="600" viewBox="0 0 800 600" xmlns="http://www.w3.org/2000/svg">
  <!-- Background Sky -->
  <rect width="800" height="600" fill="#001848"/>

  <!-- Swirling Galaxies -->
  <circle cx="150" cy="100" r="50" fill="#6A5ACD" opacity="0.7"/>
  <circle cx="180" cy="80" r="30" fill="#7B68EE" opacity="0.7"/>
  <circle cx="650" cy="120" r="40" fill="#FF69B4" opacity="0.7"/>
  <circle cx="680" cy="90" r="20" fill="#FFB6C1" opacity="0.7"/>

  <!-- Distant Planets -->
  <circle cx="300" cy="200" r="30" fill="#FFD700"/>
  <circle cx="500" cy="250" r="25" fill="#32CD32"/>
  <circle cx="700" cy="300" r="35" fill="#FF4500"/>

  <!-- Colorful Nebula -->
  <ellipse cx="400" cy="150" rx="100" ry="50" fill="#FF6347"/>
  <ellipse cx="420" cy="170" rx="80" ry="40" fill="#FFA500"/>
  <ellipse cx="380" cy="130" rx="60" ry="30" fill="#FFD700"/>

  <!-- Comet -->
  <polygon points="100,50 120,60 110,70 130,80 120,90" fill="#FFFFFF"/>
  <line x1="100" y1="50" x2="180" y2="120" stroke="#FFFFFF" stroke-width="2"/>

  <!-- Glowing Space Canyon -->
  <rect x="100" y="400" width="600" height="200" fill="#2E8B57"/>
  <rect x="100" y="400" width="600" height="200" fill="none" stroke="#32CD32" stroke-width="4"/>

  <!-- Astronaut -->
  <circle cx="400" cy="350" r="30" fill="#FFFFFF" stroke="#000000" stroke-width="2"/>
  <rect x="370" y="380" width="60" height="100" fill="#FFFFFF" stroke="#000000" stroke-width="2"/>
  <rect x="350" y="380" width="20" height="60" fill="#FFFFFF" stroke="#000000" stroke-width="2"/>
  <rect x="430" y="380" width="20" height="60" fill="#FFFFFF" stroke="#000000" stroke-width="2"/>
  <rect x="370" y="480" width="60" height="20" fill="#000000"/>

  <!-- Visor Reflection -->
  <circle cx="400" cy="350" r="10" fill="#ADD8E6"/>

  <!-- Ground Details -->
  <ellipse cx="400" cy="600" rx="800" ry="50" fill="#556B2F"/>
</svg>