<svg xmlns="http://www.w3.org/2000/svg" viewBox="0 0 800 600">
  <!-- Background -->
  <rect width="800" height="600" fill="#2E3B55"/>

  <!-- Full Moon -->
  <circle cx="700" cy="100" r="50" fill="#F5F3CE"/>

  <!-- Buildings -->
  <g>
    <polygon points="50,600 150,200 170,200 70,600" fill="#8B5E3C" transform="skewX(-5)"/>
    <polygon points="230,600 330,220 350,220 250,600" fill="#8B5E3C" transform="skewX(5)"/>
    <polygon points="410,600 510,210 530,210 430,600" fill="#8B5E3C" transform="skewX(-5)"/>
  </g>

  <!-- Cobblestone Street -->
  <rect y="550" width="800" height="50" fill="#555555"/>
  <g fill="#666666" opacity="0.8">
    <circle cx="50" cy="575" r="5"/>
    <circle cx="100" cy="575" r="5"/>
    <circle cx="150" cy="575" r="5"/>
    <circle cx="200" cy="575" r="5"/>
    <circle cx="250" cy="575" r="5"/>
    <circle cx="300" cy="575" r="5"/>
    <circle cx="350" cy="575" r="5"/>
    <circle cx="400" cy="575" r="5"/>
    <circle cx="450" cy="575" r="5"/>
    <circle cx="500" cy="575" r="5"/>
    <circle cx="550" cy="575" r="5"/>
    <circle cx="600" cy="575" r="5"/>
    <circle cx="650" cy="575" r="5"/>
    <circle cx="700" cy="575" r="5"/>
    <circle cx="750" cy="575" r="5"/>
    <circle cx="800" cy="575" r="5"/>
  </g>

  <!-- Hanging Lanterns -->
  <g>
    <g transform="translate(150, 100)">
      <line x1="0" y1="0" x2="0" y2="30" stroke="#FFA500" stroke-width="2"/>
      <circle cx="0" cy="0" r="10" fill="#FF4500"/>
    </g>
    <g transform="translate(300, 80)">
      <line x1="0" y1="0" x2="0" y2="30" stroke="#FFA500" stroke-width="2"/>
      <circle cx="0" cy="0" r="10" fill="#FF4500"/>
    </g>
    <g transform="translate(450, 120)">
      <line x1="0" y1="0" x2="0" y2="30" stroke="#FFA500" stroke-width="2"/>
      <circle cx="0" cy="0" r="10" fill="#FF4500"/>
    </g>
    <g transform="translate(600, 90)">
      <line x1="0" y1="0" x2="0" y2="30" stroke="#FFA500" stroke-width="2"/>
      <circle cx="0" cy="0" r="10" fill="#FF4500"/>
    </g>
  </g>

  <!-- Musician -->
  <g transform="translate(400, 450)">
    <!-- Head -->
    <circle cx="0" cy="-60" r="15" fill="#FFDAB9"/>
    <!-- Body -->
    <rect x="-10" y="-45" width="20" height="40" fill="#1E90FF"/>
    <!-- Arms -->
    <line x1="-10" y1="-35" x2="-30" y2="-15" stroke="#FFDAB9" stroke-width="2"/>
    <line x1="10" y1="-35" x2="30" y2="-15" stroke="#FFDAB9" stroke-width="2"/>
    <!-- Sitar -->
    <path d="M-30,-15 Q-40,-25 -50,-15" stroke="#DAA520" stroke-width="4" fill="none"/>
    <path d="M30,-15 Q40,-25 50,-15" stroke="#DAA520" stroke-width="4" fill="none"/>
  </g>

  <!-- Enchanted Audience -->
  <g>
    <g transform="translate(300, 500)">
      <circle cx="0" cy="-20" r="8" fill="#FFDAB9"/>
      <rect x="-5" y="-10" width="10" height="20" fill="#32CD32"/>
    </g>
    <g transform="translate(350, 510)">
      <circle cx="0" cy="-20" r="8" fill="#FFDAB9"/>
      <rect x="-5" y="-10" width="10" height="20" fill="#32CD32"/>
    </g>
    <g transform="translate(400, 500)">
      <circle cx="0" cy="-20" r="8" fill="#FFDAB9"/>
      <rect x="-5" y="-10" width="10" height="20" fill="#32CD32"/>
    </g>
    <g transform="translate(450, 510)">
      <circle cx="0" cy="-20" r="8" fill="#FFDAB9"/>
      <rect x="-5" y="-10" width="10" height="20" fill="#32CD32"/>
    </g>
    <g transform="translate(500, 500)">
      <circle cx="0" cy="-20" r="8" fill="#FFDAB9"/>
      <rect x="-5" y="-10" width="10" height="20" fill="#32CD32"/>
    </g>
  </g>
</svg>