<svg xmlns="http://www.w3.org/2000/svg" viewBox="0 0 800 600">
  <!-- Sky -->
  <rect width="800" height="600" fill="#1a004f"/>

  <!-- Nebula -->
  <ellipse cx="600" cy="150" rx="100" ry="60" fill="#ff6ec7"/>
  <ellipse cx="650" cy="180" rx="80" ry="50" fill="#d10093"/>
  <ellipse cx="550" cy="120" rx="90" ry="55" fill="#ff9a00"/>

  <!-- Stars -->
  <circle cx="100" cy="80" r="2" fill="#ffffff"/>
  <circle cx="200" cy="150" r="1.5" fill="#ffffff"/>
  <circle cx="300" cy="50" r="2" fill="#ffffff"/>
  <circle cx="400" cy="120" r="1.5" fill="#ffffff"/>
  <circle cx="500" cy="70" r="2" fill="#ffffff"/>
  <circle cx="700" cy="200" r="1.5" fill="#ffffff"/>
  <circle cx="750" cy="100" r="2" fill="#ffffff"/>
  <circle cx="650" cy="50" r="1.5" fill="#ffffff"/>

  <!-- Horizon -->
  <rect y="500" width="800" height="100" fill="#0a0a0a"/>

  <!-- Alien Forest -->
  <g>
    <!-- Tree 1 -->
    <polygon points="150,500 130,450 170,450" fill="#39ff14"/>
    <rect x="145" y="450" width="10" height="50" fill="#654321"/>
    <!-- Tree 2 -->
    <polygon points="250,500 230,440 270,440" fill="#00ffea"/>
    <rect x="245" y="440" width="10" height="60" fill="#654321"/>
    <!-- Tree 3 -->
    <polygon points="350,500 330,430 370,430" fill="#ffde00"/>
    <rect x="345" y="430" width="10" height="70" fill="#654321"/>
    <!-- Tree 4 -->
    <polygon points="450,500 430,460 470,460" fill="#ff66cc"/>
    <rect x="445" y="460" width="10" height="40" fill="#654321"/>
    <!-- Tree 5 -->
    <polygon points="550,500 530,440 570,440" fill="#00ff7f"/>
    <rect x="545" y="440" width="10" height="60" fill="#654321"/>
  </g>

  <!-- Astronaut -->
  <g>
    <!-- Helmet -->
    <circle cx="400" cy="450" r="20" fill="#ffffff" stroke="#000000" stroke-width="2"/>
    <!-- Body -->
    <rect x="390" y="470" width="20" height="40" fill="#ffffff" stroke="#000000" stroke-width="2"/>
    <!-- Arms -->
    <rect x="370" y="470" width="20" height="10" fill="#ffffff" stroke="#000000" stroke-width="2"/>
    <rect x="410" y="470" width="20" height="10" fill="#ffffff" stroke="#000000" stroke-width="2"/>
    <!-- Legs -->
    <rect x="390" y="510" width="8" height="30" fill="#ffffff" stroke="#000000" stroke-width="2"/>
    <rect x="402" y="510" width="8" height="30" fill="#ffffff" stroke="#000000" stroke-width="2"/>
  </g>
</svg>