<svg width="800" height="600" viewBox="0 0 800 600" xmlns="http://www.w3.org/2000/svg">
  <!-- Background sky -->
  <rect width="800" height="600" fill="#87CEEB"/>
  
  <!-- Sun -->
  <circle cx="700" cy="100" r="50" fill="#FFD700"/>
  
  <!-- Ancient buildings -->
  <rect x="50" y="200" width="150" height="300" fill="#8B4513" stroke="#654321" stroke-width="2"/>
  <polygon points="50,200 125,150 200,200" fill="#A0522D" stroke="#654321" stroke-width="2"/>
  
  <rect x="300" y="220" width="200" height="280" fill="#CD853F" stroke="#8B5A2B" stroke-width="2"/>
  <polygon points="300,220 400,160 500,220" fill="#D2691E" stroke="#8B5A2B" stroke-width="2"/>
  
  <!-- Cobblestone pathway -->
  <rect x="0" y="500" width="800" height="100" fill="#A9A9A9"/>
  <path d="M0,500 L800,500 L800,550 L0,550 Z" fill="#808080"/>
  
  <!-- Stalls -->
  <rect x="100" y="400" width="80" height="100" fill="#FF6347" stroke="#B22222" stroke-width="2"/>
  <rect x="200" y="380" width="80" height="120" fill="#3CB371" stroke="#2E8B57" stroke-width="2"/>
  <rect x="400" y="390" width="80" height="110" fill="#1E90FF" stroke="#104E8B" stroke-width="2"/>
  
  <!-- Stall roofs -->
  <polygon points="100,400 140,370 180,400" fill="#B22222" stroke="#8B0000" stroke-width="2"/>
  <polygon points="200,380 240,350 280,380" fill="#2E8B57" stroke="#006400" stroke-width="2"/>
  <polygon points="400,390 440,360 480,390" fill="#104E8B" stroke="#00008B" stroke-width="2"/>
  
  <!-- Banners -->
  <line x1="120" y1="370" x2="120" y2="350" stroke="#FF69B4" stroke-width="2"/>
  <polygon points="120,350 130,355 120,360" fill="#FF69B4"/>
  
  <line x1="320" y1="350" x2="320" y2="330" stroke="#FFD700" stroke-width="2"/>
  <polygon points="320,330 330,335 320,340" fill="#FFD700"/>
  
  <line x1="420" y1="360" x2="420" y2="340" stroke="#ADFF2F" stroke-width="2"/>
  <polygon points="420,340 430,345 420,350" fill="#ADFF2F"/>
  
  <!-- Hanging lanterns -->
  <circle cx="150" cy="250" r="10" fill="#FFA500" stroke="#FF8C00" stroke-width="1"/>
  <line x1="150" y1="250" x2="150" y2="240" stroke="#FF8C00" stroke-width="1"/>
  
  <circle cx="350" cy="220" r="10" fill="#FFA500" stroke="#FF8C00" stroke-width="1"/>
  <line x1="350" y1="220" x2="350" y2="210" stroke="#FF8C00" stroke-width="1"/>
  
  <circle cx="500" cy="230" r="10" fill="#FFA500" stroke="#FF8C00" stroke-width="1"/>
  <line x1="500" y1="230" x2="500" y2="220" stroke="#FF8C00" stroke-width="1"/>
  
  <!-- People -->
  <!-- Person 1 -->
  <circle cx="130" cy="450" r="10" fill="#FFB6C1"/>
  <rect x="125" y="460" width="10" height="20" fill="#0000FF"/>
  
  <!-- Person 2 -->
  <circle cx="170" cy="430" r="10" fill="#98FB98"/>
  <rect x="165" y="440" width="10" height="20" fill="#FF69B4"/>
  
  <!-- Person 3 -->
  <circle cx="250" cy="420" r="10" fill="#FFDAB9"/>
  <rect x="245" y="430" width="10" height="20" fill="#8A2BE2"/>
  
  <!-- Person 4 -->
  <circle cx="450" cy="410" r="10" fill="#ADD8E6"/>
  <rect x="445" y="420" width="10" height="20" fill="#FF4500"/>
  
  <!-- Animals -->
  <!-- Horse -->
  <rect x="600" y="470" width="40" height="20" fill="#654321"/>
  <circle cx="605" cy="475" r="5" fill="#000000"/>
  
  <!-- Camel -->
  <rect x="700" y="460" width="50" height="25" fill="#D2B48C"/>
  <circle cx="705" cy="465" r="5" fill="#000000"/>
  
  <!-- Flags -->
  <line x1="50" y1="200" x2="50" y2="180" stroke="#DC143C" stroke-width="2"/>
  <polygon points="50,180 60,185 50,190" fill="#DC143C"/>
  
  <line x1="300" y1="220" x2="300" y2="200" stroke="#32CD32" stroke-width="2"/>
  <polygon points="300,200 310,205 300,210" fill="#32CD32"/>
  
  <!-- Trees -->
  <rect x="600" y="350" width="20" height="50" fill="#8B4513"/>
  <circle cx="610" cy="340" r="20" fill="#228B22"/>
  
  <rect x="100" y="300" width="20" height="50" fill="#8B4513"/>
  <circle cx="110" cy="290" r="20" fill="#228B22"/>
  
</svg>