<svg xmlns="http://www.w3.org/2000/svg" viewBox="0 0 200 200">
  <!-- Background Sky -->
  <rect width="200" height="200" fill="#0B3D91"/>
  
  <!-- Moon -->
  <circle cx="160" cy="40" r="20" fill="#FDFD96"/>
  
  <!-- Stars -->
  <circle cx="30" cy="30" r="2" fill="#FFFFFF"/>
  <circle cx="70" cy="20" r="2" fill="#FFFFFF"/>
  <circle cx="110" cy="50" r="2" fill="#FFFFFF"/>
  <circle cx="150" cy="80" r="2" fill="#FFFFFF"/>
  <circle cx="190" cy="30" r="2" fill="#FFFFFF"/>
  
  <!-- Mountains -->
  <polygon points="0,150 50,100 100,150" fill="#2E8B57"/>
  <polygon points="100,150 150,90 200,150" fill="#3CB371"/>
  
  <!-- Dragon -->
  <path d="M80,100 Q70,80 90,70 Q110,80 100,100" fill="#8A2BE2"/>
  <path d="M100,100 L90,120 L110,120 Z" fill="#8A2BE2"/>
  <!-- Dragon Wings -->
  <path d="M90,80 Q70,90 90,100" fill="#9370DB"/>
  <path d="M110,80 Q130,90 110,100" fill="#9370DB"/>
  
  <!-- Cloaked Figure -->
  <circle cx="100" cy="140" r="5" fill="#FFDAB9"/>
  <path d="M95,145 Q100,135 105,145 Z" fill="#000000"/>
  
  <!-- Glowing Artifact -->
  <circle cx="100" cy="145" r="4" fill="#FFFF00"/>
  
</svg>