<svg width="800" height="600" viewBox="0 0 800 600" xmlns="http://www.w3.org/2000/svg">
  <!-- Background Sky -->
  <rect width="800" height="600" fill="#4B0082"/>

  <!-- Skyline -->
  <g>
    <!-- Building 1 -->
    <rect x="100" y="300" width="80" height="300" fill="#2E0854"/>
    <rect x="110" y="310" width="20" height="40" fill="#FFD700"/>
    <rect x="150" y="350" width="20" height="50" fill="#FFD700"/>
    <!-- Building 2 -->
    <rect x="250" y="280" width="100" height="320" fill="#2E0854"/>
    <rect x="270" y="290" width="20" height="60" fill="#FFD700"/>
    <rect x="310" y="330" width="20" height="70" fill="#FFD700"/>
    <!-- Building 3 -->
    <rect x="400" y="320" width="70" height="280" fill="#2E0854"/>
    <rect x="420" y="330" width="20" height="50" fill="#FFD700"/>
    <!-- Building 4 -->
    <rect x="500" y="260" width="120" height="340" fill="#2E0854"/>
    <rect x="520" y="270" width="20" height="80" fill="#FFD700"/>
    <rect x="560" y="350" width="20" height="90" fill="#FFD700"/>
    <!-- Building 5 -->
    <rect x="680" y="300" width="80" height="300" fill="#2E0854"/>
    <rect x="700" y="310" width="20" height="60" fill="#FFD700"/>
    <rect x="740" y="380" width="20" height="70" fill="#FFD700"/>
  </g>

  <!-- Gigantic Ancient Tree -->
  <g>
    <!-- Trunk -->
    <rect x="375" y="200" width="50" height="200" fill="#8B4513"/>
    <!-- Leaves -->
    <circle cx="400" cy="150" r="80" fill="#228B22"/>
    <circle cx="340" cy="180" r="60" fill="#228B22"/>
    <circle cx="460" cy="180" r="60" fill="#228B22"/>
  </g>

  <!-- Floating Lanterns -->
  <g>
    <circle cx="350" cy="100" r="10" fill="#FF69B4"/>
    <circle cx="450" cy="80" r="10" fill="#87CEFA"/>
    <circle cx="400" cy="50" r="10" fill="#FFD700"/>
    <circle cx="380" cy="130" r="10" fill="#FF8C00"/>
    <circle cx="420" cy="110" r="10" fill="#ADFF2F"/>
  </g>

  <!-- Diverse Crowd -->
  <g>
    <!-- Person 1 -->
    <circle cx="350" cy="400" r="10" fill="#FFB6C1"/>
    <rect x="345" y="410" width="10" height="20" fill="#FFB6C1"/>
    <!-- Person 2 -->
    <circle cx="400" cy="420" r="10" fill="#87CEFA"/>
    <rect x="395" y="430" width="10" height="20" fill="#87CEFA"/>
    <!-- Person 3 -->
    <circle cx="450" cy="400" r="10" fill="#90EE90"/>
    <rect x="445" y="410" width="10" height="20" fill="#90EE90"/>
    <!-- Person 4 -->
    <circle cx="375" cy="430" r="10" fill="#FFA07A"/>
    <rect x="370" y="440" width="10" height="20" fill="#FFA07A"/>
    <!-- Person 5 -->
    <circle cx="425" cy="430" r="10" fill="#D8BFD8"/>
    <rect x="420" y="440" width="10" height="20" fill="#D8BFD8"/>
  </g>

  <!-- Ground -->
  <rect y="500" width="800" height="100" fill="#2E0854"/>
</svg>