<svg width="800" height="600" viewBox="0 0 800 600" xmlns="http://www.w3.org/2000/svg">
  <!-- Background Space -->
  <rect width="800" height="600" fill="#000022" />

  <!-- Stars -->
  <circle cx="100" cy="80" r="2" fill="#FFFFFF" />
  <circle cx="200" cy="150" r="1.5" fill="#FFFFFF" />
  <circle cx="350" cy="50" r="2" fill="#FFFFFF" />
  <circle cx="500" cy="120" r="1.5" fill="#FFFFFF" />
  <circle cx="650" cy="200" r="2" fill="#FFFFFF" />
  <circle cx="400" cy="300" r="1.5" fill="#FFFFFF" />
  <circle cx="750" cy="80" r="2" fill="#FFFFFF" />
  <circle cx="550" cy="400" r="1.5" fill="#FFFFFF" />
  <circle cx="120" cy="450" r="2" fill="#FFFFFF" />
  <circle cx="700" cy="500" r="1.5" fill="#FFFFFF" />

  <!-- Glowing Nebula -->
  <ellipse cx="600" cy="150" rx="120" ry="70" fill="#FF69B4" />
  <ellipse cx="650" cy="180" rx="100" ry="50" fill="#BA55D3" />
  <ellipse cx="580" cy="120" rx="140" ry="80" fill="#9400D3" />

  <!-- Cosmic Clouds -->
  <ellipse cx="200" cy="400" rx="100" ry="50" fill="#1E90FF" />
  <ellipse cx="250" cy="420" rx="80" ry="40" fill="#00BFFF" />
  <ellipse cx="180" cy="380" rx="120" ry="60" fill="#00CED1" />

  <!-- Cockpit Silhouette -->
  <rect x="100" y="400" width="600" height="150" fill="#333333" />

  <!-- Pilot's Controls -->
  <rect x="350" y="450" width="100" height="50" fill="#555555" />

  <!-- Pilot's Hands -->
  <circle cx="380" cy="475" r="10" fill="#FFD700" />
  <circle cx="420" cy="475" r="10" fill="#FFD700" />
</svg>