<svg viewBox="0 0 800 600" xmlns="http://www.w3.org/2000/svg">
  <!-- Sunrise Sky -->
  <rect width="800" height="600" fill="#FFA500"/>
  <rect y="300" width="800" height="300" fill="#87CEEB"/>
  
  <!-- Stone Archway -->
  <path d="M250,600 L250,350 Q400,150 550,350 L550,600 Z" fill="#A9A9A9"/>
  <rect x="250" y="600" width="300" height="50" fill="#696969"/>
  
  <!-- Moss on Archway -->
  <path d="M250,600 Q400,580 550,600" fill="#228B22"/>
  
  <!-- Ancient Tree Trunk -->
  <rect x="380" y="350" width="40" height="200" fill="#8B4513"/>
  
  <!-- Tree Branches -->
  <path d="M400,350 Q300,250 400,150 Q500,250 400,350" fill="none" stroke="#8B4513" stroke-width="10"/>
  
  <!-- Tree Blooms -->
  <circle cx="400" cy="150" r="30" fill="#FF69B4"/>
  <circle cx="350" cy="200" r="15" fill="#FFB6C1"/>
  <circle cx="450" cy="200" r="15" fill="#FFB6C1"/>
  
  <!-- Ivy and Flowers -->
  <path d="M350,400 Q340,420 350,440 Q360,420 350,400" fill="#32CD32"/>
  <circle cx="360" cy="430" r="5" fill="#FFD700"/>
  
  <!-- Boy -->
  <circle cx="300" cy="500" r="20" fill="#FFE4C4"/>
  <rect x="290" y="520" width="20" height="50" fill="#0000FF"/>
  <line x1="300" y1="520" x2="280" y2="560" stroke="#000" stroke-width="2"/>
  <line x1="300" y1="520" x2="320" y2="560" stroke="#000" stroke-width="2"/>
  <line x1="290" y1="530" x2="310" y2="530" stroke="#000" stroke-width="2"/>
  
  <!-- Fairy -->
  <circle cx="500" cy="300" r="10" fill="#FF69B4"/>
  <path d="M500,310 Q490,320 500,330 Q510,320 500,310" fill="#FF69B4" opacity="0.7"/>
  
  <!-- Unicorn -->
  <rect x="600" y="400" width="40" height="20" fill="#FFFFFF"/>
  <polygon points="600,400 620,380 640,400" fill="#FFFFFF"/>
  <circle cx="630" cy="390" r="5" fill="#FFD700"/>
  
  <!-- Glow around Creatures -->
  <circle cx="500" cy="300" r="15" fill="none" stroke="#FFFACD" stroke-width="2"/>
  <circle cx="620" cy="390" r="10" fill="none" stroke="#FFFACD" stroke-width="2"/>
</svg>