<svg xmlns="http://www.w3.org/2000/svg" viewBox="0 0 800 600">
  <!-- Background -->
  <rect width="800" height="600" fill="#f5f5dc"/>
  
  <!-- Stained Glass Windows -->
  <rect x="50" y="50" width="700" height="200" fill="#8b0000" stroke="#000" stroke-width="2"/>
  <line x1="400" y1="50" x2="400" y2="250" stroke="#000" stroke-width="2"/>
  <line x1="50" y1="150" x2="750" y2="150" stroke="#000" stroke-width="2"/>
  <!-- Color panels -->
  <rect x="52" y="52" width="146" height="146" fill="#ff69b4" stroke="none"/>
  <rect x="400" y="52" width="148" height="146" fill="#1e90ff" stroke="none"/>
  <rect x="52" y="200" width="146" height="148" fill="#32cd32" stroke="none"/>
  <rect x="400" y="200" width="148" height="148" fill="#ffd700" stroke="none"/>
  
  <!-- Bookshelves -->
  <g id="bookshelves">
    <!-- Left Shelf -->
    <rect x="50" y="300" width="100" height="250" fill="#8b4513"/>
    <!-- Books on left shelf -->
    <g fill="#ff6347">
      <rect x="55" y="305" width="30" height="40"/>
      <rect x="90" y="305" width="30" height="60"/>
      <rect x="55" y="355" width="30" height="50"/>
    </g>
    <!-- Middle Shelf -->
    <rect x="350" y="300" width="100" height="250" fill="#8b4513"/>
    <!-- Books on middle shelf -->
    <g fill="#1e90ff">
      <rect x="355" y="305" width="30" height="70"/>
      <rect x="390" y="305" width="30" height="40"/>
      <rect x="355" y="360" width="30" height="50"/>
    </g>
    <!-- Right Shelf -->
    <rect x="650" y="300" width="100" height="250" fill="#8b4513"/>
    <!-- Books on right shelf -->
    <g fill="#32cd32">
      <rect x="655" y="305" width="30" height="60"/>
      <rect x="690" y="305" width="30" height="50"/>
      <rect x="655" y="360" width="30" height="70"/>
    </g>
  </g>
  
  <!-- Wooden Table -->
  <rect x="250" y="500" width="300" height="50" fill="#a0522d" stroke="#000" stroke-width="2"/>
  
  <!-- Oversized Tome -->
  <rect x="375" y="450" width="50" height="100" fill="#8b0000" stroke="#000" stroke-width="2"/>
  <!-- Shimmering Pages -->
  <line x1="375" y1="450" x2="425" y2="450" stroke="#fffacd" stroke-width="1"/>
  <line x1="375" y1="470" x2="425" y2="470" stroke="#fffacd" stroke-width="1"/>
  <line x1="375" y1="490" x2="425" y2="490" stroke="#fffacd" stroke-width="1"/>
  <line x1="375" y1="510" x2="425" y2="510" stroke="#fffacd" stroke-width="1"/>
  <line x1="375" y1="530" x2="425" y2="530" stroke="#fffacd" stroke-width="1"/>
  
  <!-- Golden Sunlight -->
  <rect x="0" y="0" width="800" height="50" fill="gold" opacity="0.3"/>
  <rect x="0" y="150" width="800" height="50" fill="gold" opacity="0.3"/>
  
  <!-- Dust Particles -->
  <circle cx="200" cy="100" r="2" fill="#fffacd"/>
  <circle cx="300" cy="200" r="1.5" fill="#fffacd"/>
  <circle cx="500" cy="120" r="2.5" fill="#fffacd"/>
  <circle cx="600" cy="180" r="1" fill="#fffacd"/>
  <circle cx="700" cy="220" r="2" fill="#fffacd"/>
</svg>