<svg xmlns="http://www.w3.org/2000/svg" viewBox="0 0 800 600">
  <!-- Background Sky -->
  <rect width="800" height="600" fill="#1a237e"/>
  
  <!-- Stars -->
  <circle cx="100" cy="80" r="2" fill="#fff"/>
  <circle cx="200" cy="150" r="1.5" fill="#fff"/>
  <circle cx="300" cy="70" r="2" fill="#fff"/>
  <circle cx="400" cy="130" r="1.5" fill="#fff"/>
  <circle cx="500" cy="60" r="2" fill="#fff"/>
  <circle cx="600" cy="140" r="1.5" fill="#fff"/>
  <circle cx="700" cy="90" r="2" fill="#fff"/>
  
  <!-- Canyon -->
  <rect x="0" y="400" width="800" height="200" fill="#263238"/>
  
  <!-- Cliff Faces -->
  <path d="M0,400 L100,200 L200,400 Z" fill="#37474f"/>
  <path d="M800,400 L700,220 L600,400 Z" fill="#37474f"/>
  
  <!-- Ancient Bridge -->
  <path d="M100,400 L400,350 L700,400" stroke="#ffeb3b" stroke-width="10" fill="none"/>
  
  <!-- Runes -->
  <circle cx="250" cy="370" r="5" fill="#ffeb3b"/>
  <circle cx="350" cy="360" r="5" fill="#ffeb3b"/>
  <circle cx="450" cy="370" r="5" fill="#ffeb3b"/>
  
  <!-- Mist -->
  <path d="M350,350 Q360,330 370,350 T390,350" fill="none" stroke="#b0bec5" stroke-width="2"/>
  <path d="M300,360 Q310,340 320,360 T340,360" fill="none" stroke="#b0bec5" stroke-width="2"/>
  
  <!-- Lone Figure -->
  <circle cx="400" cy="345" r="10" fill="#ff5722"/>
  <rect x="395" y="355" width="10" height="20" fill="#ff5722"/>
  <line x1="395" y1="360" x2="385" y2="370" stroke="#ff5722" stroke-width="2"/>
  <line x1="405" y1="360" x2="415" y2="370" stroke="#ff5722" stroke-width="2"/>
  
  <!-- Shadowy Creature -->
  <ellipse cx="400" cy="345" rx="20" ry="30" fill="#37474f" opacity="0.7"/>
  <circle cx="390" cy="335" r="3" fill="#fff"/>
  <circle cx="410" cy="335" r="3" fill="#fff"/>
  <path d="M390,350 Q400,360 410,350" stroke="#fff" stroke-width="1" fill="none"/>
</svg>