<svg xmlns="http://www.w3.org/2000/svg" viewBox="0 0 800 600">
  <!-- Sky -->
  <rect x="0" y="0" width="800" height="350" fill="#4B0082"/> <!-- Deep purple -->
  <rect x="0" y="350" width="800" height="200" fill="#00008B"/> <!-- Deep blue -->
  <rect x="0" y="550" width="800" height="50" fill="#FFD700"/> <!-- Gold sunset band -->

  <!-- Desert with Curved Horizon -->
  <path d="M0,350 Q400,300 800,350 L800,600 L0,600 Z" fill="#F4A460"/> <!-- Curved desert -->

  <!-- City Skyline -->
  <g id="city">
    <rect x="100" y="250" width="50" height="100" fill="#2F4F4F"/>
    <rect x="170" y="220" width="60" height="130" fill="#2F4F4F"/>
    <rect x="250" y="270" width="40" height="80" fill="#2F4F4F"/>
    <rect x="300" y="240" width="70" height="120" fill="#2F4F4F"/>
    <rect x="400" y="300" width="50" height="60" fill="#2F4F4F"/>
    <rect x="470" y="250" width="60" height="110" fill="#2F4F4F"/>
    <rect x="550" y="280" width="50" height="80" fill="#2F4F4F"/>
    <rect x="620" y="220" width="70" height="130" fill="#2F4F4F"/>
    <!-- Windows -->
    <g fill="#FFFFE0" opacity="0.6">
      <rect x="110" y="280" width="10" height="10"/>
      <rect x="130" y="300" width="10" height="10"/>
      <rect x="180" y="230" width="10" height="10"/>
      <rect x="200" y="250" width="10" height="10"/>
      <rect x="280" y="270" width="10" height="10"/>
      <rect x="310" y="240" width="10" height="10"/>
      <rect x="400" y="310" width="10" height="10"/>
      <rect x="430" y="330" width="10" height="10"/>
      <rect x="480" y="230" width="10" height="10"/>
      <rect x="500" y="250" width="10" height="10"/>
      <rect x="560" y="280" width="10" height="10"/>
      <rect x="580" y="300" width="10" height="10"/>
      <rect x="630" y="230" width="10" height="10"/>
      <rect x="650" y="250" width="10" height="10"/>
    </g>
  </g>

  <!-- Futuristic Bike -->
  <g id="bike">
    <!-- Wheels -->
    <circle cx="200" cy="500" r="20" fill="#C0C0C0"/>
    <circle cx="260" cy="500" r="20" fill="#C0C0C0"/>
    <!-- Frame -->
    <line x1="200" y1="500" x2="230" y2="480" stroke="#00FFFF" stroke-width="4"/>
    <line x1="230" y1="480" x2="260" y2="500" stroke="#00FFFF" stroke-width="4"/>
    <line x1="230" y1="480" x2="230" y2="490" stroke="#00FFFF" stroke-width="4"/>
    <!-- Glowing Elements -->
    <circle cx="230" cy="490" r="5" fill="#00FFFF"/>
  </g>

  <!-- Figure -->
  <g id="figure">
    <!-- Head -->
    <circle cx="200" cy="470" r="10" fill="#000000"/>
    <!-- Body -->
    <line x1="200" y1="480" x2="200" y2="500" stroke="#000000" stroke-width="2"/>
    <!-- Arms -->
    <line x1="200" y1="490" x2="190" y2="480" stroke="#000000" stroke-width="2"/>
    <line x1="200" y1="490" x2="210" y2="480" stroke="#000000" stroke-width="2"/>
    <!-- Legs -->
    <line x1="200" y1="500" x2="190" y2="510" stroke="#000000" stroke-width="2"/>
    <line x1="200" y1="500" x2="210" y2="510" stroke="#000000" stroke-width="2"/>
  </g>
</svg>